# xmcd CD database file
#
# Track frame offsets:
#	150
#	89920
#	139186
#	159891
#
# Disc length: 2532 seconds
#
# Revision: 0
# Processed by: cddbd v1.5.2PL0 Copyright (c) Steve Scherf et al.
# Submitted via: CDex 1.70beta2
#
DISCID=2f09e204
DTITLE=Chicago Underground Duo (Chad Taylor and Rob Mazurek) - Age of Energy
DYEAR=2012
DGENRE=Jazz
TTITLE0=Winds and Sweeping Pines
TTITLE1=It's Alright
TTITLE2=Castke in your Heart
TTITLE3=Age of Energy
EXTD=YEAR: 2012
EXTT0=
EXTT1=
EXTT2=
EXTT3=
PLAYORDER=
